<?xml version="1.0" encoding="utf-8" standalone="no"?>
<!DOCTYPE svg PUBLIC "-//W3C//DTD SVG 1.1//EN"
  "http://www.w3.org/Graphics/SVG/1.1/DTD/svg11.dtd">
<svg xmlns:xlink="http://www.w3.org/1999/xlink" width="100%"  viewBox="0 0 460.8 345.6" xmlns="http://www.w3.org/2000/svg" version="1.1">
 <metadata>
  <rdf:RDF xmlns:dc="http://purl.org/dc/elements/1.1/" xmlns:cc="http://creativecommons.org/ns#" xmlns:rdf="http://www.w3.org/1999/02/22-rdf-syntax-ns#">
   <cc:Work>
    <dc:type rdf:resource="http://purl.org/dc/dcmitype/StillImage"/>
    <dc:date>2024-07-25T13:25:12.020974</dc:date>
    <dc:format>image/svg+xml</dc:format>
    <dc:creator>
     <cc:Agent>
      <dc:title>Matplotlib v3.7.3, https://matplotlib.org/</dc:title>
     </cc:Agent>
    </dc:creator>
   </cc:Work>
  </rdf:RDF>
 </metadata>
 <defs>
  <style type="text/css">*{stroke-linejoin: round; stroke-linecap: butt}</style>
 </defs>
 <g id="figure_1">
  <g id="patch_1">
   <path d="M 0 345.6 
L 460.8 345.6 
L 460.8 0 
L 0 0 
z
" style="fill: #ffffff"/>
  </g>
  <g id="axes_1">
   <g id="patch_2">
    <path d="M 57.6 307.584 
L 414.72 307.584 
L 414.72 41.472 
L 57.6 41.472 
z
" style="fill: #ffffff"/>
   </g>
   <g id="patch_3">
    <path d="M 222.914725 295.488 
C 265.964421 299.866943 308.652314 291.322017 341.576892 271.735143 
C 374.501469 252.148268 394.974585 223.118627 398.487273 191.03966 
C 401.999961 158.960693 388.265425 126.451506 360.308539 100.67187 
C 332.351652 74.892235 292.454971 57.946943 249.405275 53.568 
C 206.355579 49.189057 163.667686 57.733983 130.743108 77.320857 
C 97.818531 96.907732 77.345415 125.937373 73.832727 158.01634 
C 70.320039 190.095307 84.054575 222.604494 112.011461 248.38413 
C 139.968348 274.163765 179.865029 291.109057 222.914725 295.488 
z
" clip-path="url(#p1ca4ac1b11)" style="fill: #1f77b4; opacity: 0.1"/>
   </g>
   <g id="PathCollection_1">
    <defs>
     <path id="m3fee5d6ae9" d="M 0 3 
C 0.795609 3 1.55874 2.683901 2.12132 2.12132 
C 2.683901 1.55874 3 0.795609 3 0 
C 3 -0.795609 2.683901 -1.55874 2.12132 -2.12132 
C 1.55874 -2.683901 0.795609 -3 0 -3 
C -0.795609 -3 -1.55874 -2.683901 -2.12132 -2.12132 
C -2.683901 -1.55874 -3 -0.795609 -3 0 
C -3 0.795609 -2.683901 1.55874 -2.12132 2.12132 
C -1.55874 2.683901 -0.795609 3 0 3 
z
" style="stroke: #0000db"/>
    </defs>
    <g clip-path="url(#p1ca4ac1b11)">
     <use xlink:href="#m3fee5d6ae9" x="238.854862" y="136.922955" style="fill: #0000db; stroke: #0000db"/>
    </g>
   </g>
   <g id="PathCollection_2">
    <g clip-path="url(#p1ca4ac1b11)">
     <use xlink:href="#m3fee5d6ae9" x="237.477573" y="184.626643" style="fill: #0000db; stroke: #0000db"/>
    </g>
   </g>
   <g id="PathCollection_3">
    <g clip-path="url(#p1ca4ac1b11)">
     <use xlink:href="#m3fee5d6ae9" x="231.415851" y="191.143798" style="fill: #0000db; stroke: #0000db"/>
    </g>
   </g>
   <g id="PathCollection_4">
    <g clip-path="url(#p1ca4ac1b11)">
     <use xlink:href="#m3fee5d6ae9" x="249.771795" y="160.413266" style="fill: #0000db; stroke: #0000db"/>
    </g>
   </g>
   <g id="PathCollection_5">
    <g clip-path="url(#p1ca4ac1b11)">
     <use xlink:href="#m3fee5d6ae9" x="215.378525" y="164.650636" style="fill: #0000db; stroke: #0000db"/>
    </g>
   </g>
   <g id="PathCollection_6">
    <g clip-path="url(#p1ca4ac1b11)">
     <use xlink:href="#m3fee5d6ae9" x="232.237994" y="172.963081" style="fill: #0000db; stroke: #0000db"/>
    </g>
   </g>
   <g id="PathCollection_7">
    <g clip-path="url(#p1ca4ac1b11)">
     <use xlink:href="#m3fee5d6ae9" x="222.966802" y="181.190581" style="fill: #0000db; stroke: #0000db"/>
    </g>
   </g>
   <g id="PathCollection_8">
    <defs>
     <path id="m41c9af10e8" d="M 0 3 
C 0.795609 3 1.55874 2.683901 2.12132 2.12132 
C 2.683901 1.55874 3 0.795609 3 0 
C 3 -0.795609 2.683901 -1.55874 2.12132 -2.12132 
C 1.55874 -2.683901 0.795609 -3 0 -3 
C -0.795609 -3 -1.55874 -2.683901 -2.12132 -2.12132 
C -2.683901 -1.55874 -3 -0.795609 -3 0 
C -3 0.795609 -2.683901 1.55874 -2.12132 2.12132 
C -1.55874 2.683901 -0.795609 3 0 3 
z
" style="stroke: #e60000"/>
    </defs>
    <g clip-path="url(#p1ca4ac1b11)">
     <use xlink:href="#m41c9af10e8" x="314.009545" y="53.750067" style="fill: #e60000; stroke: #e60000"/>
    </g>
   </g>
   <g id="PathCollection_9">
    <g clip-path="url(#p1ca4ac1b11)">
     <use xlink:href="#m3fee5d6ae9" x="221.938574" y="167.625897" style="fill: #0000db; stroke: #0000db"/>
    </g>
   </g>
   <g id="PathCollection_10">
    <g clip-path="url(#p1ca4ac1b11)">
     <use xlink:href="#m3fee5d6ae9" x="245.616189" y="143.165303" style="fill: #0000db; stroke: #0000db"/>
    </g>
   </g>
   <g id="PathCollection_11">
    <g clip-path="url(#p1ca4ac1b11)">
     <use xlink:href="#m3fee5d6ae9" x="253.338359" y="172.944501" style="fill: #0000db; stroke: #0000db"/>
    </g>
   </g>
   <g id="PathCollection_12">
    <g clip-path="url(#p1ca4ac1b11)">
     <use xlink:href="#m3fee5d6ae9" x="232.260662" y="144.359347" style="fill: #0000db; stroke: #0000db"/>
    </g>
   </g>
   <g id="PathCollection_13">
    <g clip-path="url(#p1ca4ac1b11)">
     <use xlink:href="#m3fee5d6ae9" x="262.458915" y="131.169132" style="fill: #0000db; stroke: #0000db"/>
    </g>
   </g>
   <g id="PathCollection_14">
    <g clip-path="url(#p1ca4ac1b11)">
     <use xlink:href="#m3fee5d6ae9" x="265.144616" y="170.506422" style="fill: #0000db; stroke: #0000db"/>
    </g>
   </g>
   <g id="PathCollection_15">
    <g clip-path="url(#p1ca4ac1b11)">
     <use xlink:href="#m3fee5d6ae9" x="226.082074" y="161.723076" style="fill: #0000db; stroke: #0000db"/>
    </g>
   </g>
   <g id="PathCollection_16">
    <g clip-path="url(#p1ca4ac1b11)">
     <use xlink:href="#m3fee5d6ae9" x="249.420086" y="139.411366" style="fill: #0000db; stroke: #0000db"/>
    </g>
   </g>
   <g id="PathCollection_17">
    <g clip-path="url(#p1ca4ac1b11)">
     <use xlink:href="#m3fee5d6ae9" x="244.470897" y="166.796902" style="fill: #0000db; stroke: #0000db"/>
    </g>
   </g>
   <g id="PathCollection_18">
    <g clip-path="url(#p1ca4ac1b11)">
     <use xlink:href="#m3fee5d6ae9" x="218.9197" y="170.645661" style="fill: #0000db; stroke: #0000db"/>
    </g>
   </g>
   <g id="PathCollection_19">
    <g clip-path="url(#p1ca4ac1b11)">
     <use xlink:href="#m3fee5d6ae9" x="218.4658" y="169.62797" style="fill: #0000db; stroke: #0000db"/>
    </g>
   </g>
   <g id="PathCollection_20">
    <g clip-path="url(#p1ca4ac1b11)">
     <use xlink:href="#m3fee5d6ae9" x="234.082948" y="185.518694" style="fill: #0000db; stroke: #0000db"/>
    </g>
   </g>
   <g id="PathCollection_21">
    <g clip-path="url(#p1ca4ac1b11)">
     <use xlink:href="#m3fee5d6ae9" x="236.563438" y="194.19216" style="fill: #0000db; stroke: #0000db"/>
    </g>
   </g>
   <g id="PathCollection_22">
    <g clip-path="url(#p1ca4ac1b11)">
     <use xlink:href="#m3fee5d6ae9" x="234.166696" y="170.621918" style="fill: #0000db; stroke: #0000db"/>
    </g>
   </g>
   <g id="PathCollection_23">
    <g clip-path="url(#p1ca4ac1b11)">
     <use xlink:href="#m3fee5d6ae9" x="248.599835" y="189.265429" style="fill: #0000db; stroke: #0000db"/>
    </g>
   </g>
   <g id="PathCollection_24">
    <g clip-path="url(#p1ca4ac1b11)">
     <use xlink:href="#m3fee5d6ae9" x="244.53596" y="159.881984" style="fill: #0000db; stroke: #0000db"/>
    </g>
   </g>
   <g id="PathCollection_25">
    <g clip-path="url(#p1ca4ac1b11)">
     <use xlink:href="#m3fee5d6ae9" x="245.356313" y="180.24019" style="fill: #0000db; stroke: #0000db"/>
    </g>
   </g>
   <g id="PathCollection_26">
    <g clip-path="url(#p1ca4ac1b11)">
     <use xlink:href="#m3fee5d6ae9" x="245.676435" y="176.993286" style="fill: #0000db; stroke: #0000db"/>
    </g>
   </g>
   <g id="PathCollection_27">
    <g clip-path="url(#p1ca4ac1b11)">
     <use xlink:href="#m3fee5d6ae9" x="246.261017" y="173.093289" style="fill: #0000db; stroke: #0000db"/>
    </g>
   </g>
   <g id="PathCollection_28">
    <g clip-path="url(#p1ca4ac1b11)">
     <use xlink:href="#m3fee5d6ae9" x="222.668799" y="174.950617" style="fill: #0000db; stroke: #0000db"/>
    </g>
   </g>
   <g id="matplotlib.axis_1">
    <g id="xtick_1">
     <g id="line2d_1">
      <defs>
       <path id="m7ba6077ea5" d="M 0 0 
L 0 3.5 
" style="stroke: #000000; stroke-width: 0.8"/>
      </defs>
      <g>
       <use xlink:href="#m7ba6077ea5" x="108.866948" y="307.584" style="stroke: #000000; stroke-width: 0.8"/>
      </g>
     </g>
     <g id="text_1">
      <!-- −4 -->
      <g transform="translate(101.495854 322.182437) scale(0.1 -0.1)">
       <defs>
        <path id="DejaVuSans-2212" d="M 678 2272 
L 4684 2272 
L 4684 1741 
L 678 1741 
L 678 2272 
z
" transform="scale(0.015625)"/>
        <path id="DejaVuSans-34" d="M 2419 4116 
L 825 1625 
L 2419 1625 
L 2419 4116 
z
M 2253 4666 
L 3047 4666 
L 3047 1625 
L 3713 1625 
L 3713 1100 
L 3047 1100 
L 3047 0 
L 2419 0 
L 2419 1100 
L 313 1100 
L 313 1709 
L 2253 4666 
z
" transform="scale(0.015625)"/>
       </defs>
       <use xlink:href="#DejaVuSans-2212"/>
       <use xlink:href="#DejaVuSans-34" x="83.789062"/>
      </g>
     </g>
    </g>
    <g id="xtick_2">
     <g id="line2d_2">
      <g>
       <use xlink:href="#m7ba6077ea5" x="174.435335" y="307.584" style="stroke: #000000; stroke-width: 0.8"/>
      </g>
     </g>
     <g id="text_2">
      <!-- −2 -->
      <g transform="translate(167.064242 322.182437) scale(0.1 -0.1)">
       <defs>
        <path id="DejaVuSans-32" d="M 1228 531 
L 3431 531 
L 3431 0 
L 469 0 
L 469 531 
Q 828 903 1448 1529 
Q 2069 2156 2228 2338 
Q 2531 2678 2651 2914 
Q 2772 3150 2772 3378 
Q 2772 3750 2511 3984 
Q 2250 4219 1831 4219 
Q 1534 4219 1204 4116 
Q 875 4013 500 3803 
L 500 4441 
Q 881 4594 1212 4672 
Q 1544 4750 1819 4750 
Q 2544 4750 2975 4387 
Q 3406 4025 3406 3419 
Q 3406 3131 3298 2873 
Q 3191 2616 2906 2266 
Q 2828 2175 2409 1742 
Q 1991 1309 1228 531 
z
" transform="scale(0.015625)"/>
       </defs>
       <use xlink:href="#DejaVuSans-2212"/>
       <use xlink:href="#DejaVuSans-32" x="83.789062"/>
      </g>
     </g>
    </g>
    <g id="xtick_3">
     <g id="line2d_3">
      <g>
       <use xlink:href="#m7ba6077ea5" x="240.003723" y="307.584" style="stroke: #000000; stroke-width: 0.8"/>
      </g>
     </g>
     <g id="text_3">
      <!-- 0 -->
      <g transform="translate(236.822473 322.182437) scale(0.1 -0.1)">
       <defs>
        <path id="DejaVuSans-30" d="M 2034 4250 
Q 1547 4250 1301 3770 
Q 1056 3291 1056 2328 
Q 1056 1369 1301 889 
Q 1547 409 2034 409 
Q 2525 409 2770 889 
Q 3016 1369 3016 2328 
Q 3016 3291 2770 3770 
Q 2525 4250 2034 4250 
z
M 2034 4750 
Q 2819 4750 3233 4129 
Q 3647 3509 3647 2328 
Q 3647 1150 3233 529 
Q 2819 -91 2034 -91 
Q 1250 -91 836 529 
Q 422 1150 422 2328 
Q 422 3509 836 4129 
Q 1250 4750 2034 4750 
z
" transform="scale(0.015625)"/>
       </defs>
       <use xlink:href="#DejaVuSans-30"/>
      </g>
     </g>
    </g>
    <g id="xtick_4">
     <g id="line2d_4">
      <g>
       <use xlink:href="#m7ba6077ea5" x="305.57211" y="307.584" style="stroke: #000000; stroke-width: 0.8"/>
      </g>
     </g>
     <g id="text_4">
      <!-- 2 -->
      <g transform="translate(302.39086 322.182437) scale(0.1 -0.1)">
       <use xlink:href="#DejaVuSans-32"/>
      </g>
     </g>
    </g>
    <g id="xtick_5">
     <g id="line2d_5">
      <g>
       <use xlink:href="#m7ba6077ea5" x="371.140497" y="307.584" style="stroke: #000000; stroke-width: 0.8"/>
      </g>
     </g>
     <g id="text_5">
      <!-- 4 -->
      <g transform="translate(367.959247 322.182437) scale(0.1 -0.1)">
       <use xlink:href="#DejaVuSans-34"/>
      </g>
     </g>
    </g>
    <g id="text_6">
     <!-- MO -->
     <g transform="translate(227.91 335.860562) scale(0.1 -0.1)">
      <defs>
       <path id="DejaVuSans-4d" d="M 628 4666 
L 1569 4666 
L 2759 1491 
L 3956 4666 
L 4897 4666 
L 4897 0 
L 4281 0 
L 4281 4097 
L 3078 897 
L 2444 897 
L 1241 4097 
L 1241 0 
L 628 0 
L 628 4666 
z
" transform="scale(0.015625)"/>
       <path id="DejaVuSans-4f" d="M 2522 4238 
Q 1834 4238 1429 3725 
Q 1025 3213 1025 2328 
Q 1025 1447 1429 934 
Q 1834 422 2522 422 
Q 3209 422 3611 934 
Q 4013 1447 4013 2328 
Q 4013 3213 3611 3725 
Q 3209 4238 2522 4238 
z
M 2522 4750 
Q 3503 4750 4090 4092 
Q 4678 3434 4678 2328 
Q 4678 1225 4090 567 
Q 3503 -91 2522 -91 
Q 1538 -91 948 565 
Q 359 1222 359 2328 
Q 359 3434 948 4092 
Q 1538 4750 2522 4750 
z
" transform="scale(0.015625)"/>
      </defs>
      <use xlink:href="#DejaVuSans-4d"/>
      <use xlink:href="#DejaVuSans-4f" x="86.279297"/>
     </g>
    </g>
   </g>
   <g id="matplotlib.axis_2">
    <g id="ytick_1">
     <g id="line2d_6">
      <defs>
       <path id="m4cb1eb3ad5" d="M 0 0 
L -3.5 0 
" style="stroke: #000000; stroke-width: 0.8"/>
      </defs>
      <g>
       <use xlink:href="#m4cb1eb3ad5" x="57.6" y="299.311016" style="stroke: #000000; stroke-width: 0.8"/>
      </g>
     </g>
     <g id="text_7">
      <!-- −2 -->
      <g transform="translate(35.857813 303.110235) scale(0.1 -0.1)">
       <use xlink:href="#DejaVuSans-2212"/>
       <use xlink:href="#DejaVuSans-32" x="83.789062"/>
      </g>
     </g>
    </g>
    <g id="ytick_2">
     <g id="line2d_7">
      <g>
       <use xlink:href="#m4cb1eb3ad5" x="57.6" y="267.713385" style="stroke: #000000; stroke-width: 0.8"/>
      </g>
     </g>
     <g id="text_8">
      <!-- −1 -->
      <g transform="translate(35.857813 271.512603) scale(0.1 -0.1)">
       <defs>
        <path id="DejaVuSans-31" d="M 794 531 
L 1825 531 
L 1825 4091 
L 703 3866 
L 703 4441 
L 1819 4666 
L 2450 4666 
L 2450 531 
L 3481 531 
L 3481 0 
L 794 0 
L 794 531 
z
" transform="scale(0.015625)"/>
       </defs>
       <use xlink:href="#DejaVuSans-2212"/>
       <use xlink:href="#DejaVuSans-31" x="83.789062"/>
      </g>
     </g>
    </g>
    <g id="ytick_3">
     <g id="line2d_8">
      <g>
       <use xlink:href="#m4cb1eb3ad5" x="57.6" y="236.115753" style="stroke: #000000; stroke-width: 0.8"/>
      </g>
     </g>
     <g id="text_9">
      <!-- 0 -->
      <g transform="translate(44.2375 239.914972) scale(0.1 -0.1)">
       <use xlink:href="#DejaVuSans-30"/>
      </g>
     </g>
    </g>
    <g id="ytick_4">
     <g id="line2d_9">
      <g>
       <use xlink:href="#m4cb1eb3ad5" x="57.6" y="204.518122" style="stroke: #000000; stroke-width: 0.8"/>
      </g>
     </g>
     <g id="text_10">
      <!-- 1 -->
      <g transform="translate(44.2375 208.31734) scale(0.1 -0.1)">
       <use xlink:href="#DejaVuSans-31"/>
      </g>
     </g>
    </g>
    <g id="ytick_5">
     <g id="line2d_10">
      <g>
       <use xlink:href="#m4cb1eb3ad5" x="57.6" y="172.92049" style="stroke: #000000; stroke-width: 0.8"/>
      </g>
     </g>
     <g id="text_11">
      <!-- 2 -->
      <g transform="translate(44.2375 176.719709) scale(0.1 -0.1)">
       <use xlink:href="#DejaVuSans-32"/>
      </g>
     </g>
    </g>
    <g id="ytick_6">
     <g id="line2d_11">
      <g>
       <use xlink:href="#m4cb1eb3ad5" x="57.6" y="141.322859" style="stroke: #000000; stroke-width: 0.8"/>
      </g>
     </g>
     <g id="text_12">
      <!-- 3 -->
      <g transform="translate(44.2375 145.122078) scale(0.1 -0.1)">
       <defs>
        <path id="DejaVuSans-33" d="M 2597 2516 
Q 3050 2419 3304 2112 
Q 3559 1806 3559 1356 
Q 3559 666 3084 287 
Q 2609 -91 1734 -91 
Q 1441 -91 1130 -33 
Q 819 25 488 141 
L 488 750 
Q 750 597 1062 519 
Q 1375 441 1716 441 
Q 2309 441 2620 675 
Q 2931 909 2931 1356 
Q 2931 1769 2642 2001 
Q 2353 2234 1838 2234 
L 1294 2234 
L 1294 2753 
L 1863 2753 
Q 2328 2753 2575 2939 
Q 2822 3125 2822 3475 
Q 2822 3834 2567 4026 
Q 2313 4219 1838 4219 
Q 1578 4219 1281 4162 
Q 984 4106 628 3988 
L 628 4550 
Q 988 4650 1302 4700 
Q 1616 4750 1894 4750 
Q 2613 4750 3031 4423 
Q 3450 4097 3450 3541 
Q 3450 3153 3228 2886 
Q 3006 2619 2597 2516 
z
" transform="scale(0.015625)"/>
       </defs>
       <use xlink:href="#DejaVuSans-33"/>
      </g>
     </g>
    </g>
    <g id="ytick_7">
     <g id="line2d_12">
      <g>
       <use xlink:href="#m4cb1eb3ad5" x="57.6" y="109.725228" style="stroke: #000000; stroke-width: 0.8"/>
      </g>
     </g>
     <g id="text_13">
      <!-- 4 -->
      <g transform="translate(44.2375 113.524446) scale(0.1 -0.1)">
       <use xlink:href="#DejaVuSans-34"/>
      </g>
     </g>
    </g>
    <g id="ytick_8">
     <g id="line2d_13">
      <g>
       <use xlink:href="#m4cb1eb3ad5" x="57.6" y="78.127596" style="stroke: #000000; stroke-width: 0.8"/>
      </g>
     </g>
     <g id="text_14">
      <!-- 5 -->
      <g transform="translate(44.2375 81.926815) scale(0.1 -0.1)">
       <defs>
        <path id="DejaVuSans-35" d="M 691 4666 
L 3169 4666 
L 3169 4134 
L 1269 4134 
L 1269 2991 
Q 1406 3038 1543 3061 
Q 1681 3084 1819 3084 
Q 2600 3084 3056 2656 
Q 3513 2228 3513 1497 
Q 3513 744 3044 326 
Q 2575 -91 1722 -91 
Q 1428 -91 1123 -41 
Q 819 9 494 109 
L 494 744 
Q 775 591 1075 516 
Q 1375 441 1709 441 
Q 2250 441 2565 725 
Q 2881 1009 2881 1497 
Q 2881 1984 2565 2268 
Q 2250 2553 1709 2553 
Q 1456 2553 1204 2497 
Q 953 2441 691 2322 
L 691 4666 
z
" transform="scale(0.015625)"/>
       </defs>
       <use xlink:href="#DejaVuSans-35"/>
      </g>
     </g>
    </g>
    <g id="ytick_9">
     <g id="line2d_14">
      <g>
       <use xlink:href="#m4cb1eb3ad5" x="57.6" y="46.529965" style="stroke: #000000; stroke-width: 0.8"/>
      </g>
     </g>
     <g id="text_15">
      <!-- 6 -->
      <g transform="translate(44.2375 50.329183) scale(0.1 -0.1)">
       <defs>
        <path id="DejaVuSans-36" d="M 2113 2584 
Q 1688 2584 1439 2293 
Q 1191 2003 1191 1497 
Q 1191 994 1439 701 
Q 1688 409 2113 409 
Q 2538 409 2786 701 
Q 3034 994 3034 1497 
Q 3034 2003 2786 2293 
Q 2538 2584 2113 2584 
z
M 3366 4563 
L 3366 3988 
Q 3128 4100 2886 4159 
Q 2644 4219 2406 4219 
Q 1781 4219 1451 3797 
Q 1122 3375 1075 2522 
Q 1259 2794 1537 2939 
Q 1816 3084 2150 3084 
Q 2853 3084 3261 2657 
Q 3669 2231 3669 1497 
Q 3669 778 3244 343 
Q 2819 -91 2113 -91 
Q 1303 -91 875 529 
Q 447 1150 447 2328 
Q 447 3434 972 4092 
Q 1497 4750 2381 4750 
Q 2619 4750 2861 4703 
Q 3103 4656 3366 4563 
z
" transform="scale(0.015625)"/>
       </defs>
       <use xlink:href="#DejaVuSans-36"/>
      </g>
     </g>
    </g>
    <g id="text_16">
     <!-- VO -->
     <g transform="translate(29.778125 181.79675) rotate(-90) scale(0.1 -0.1)">
      <defs>
       <path id="DejaVuSans-56" d="M 1831 0 
L 50 4666 
L 709 4666 
L 2188 738 
L 3669 4666 
L 4325 4666 
L 2547 0 
L 1831 0 
z
" transform="scale(0.015625)"/>
      </defs>
      <use xlink:href="#DejaVuSans-56"/>
      <use xlink:href="#DejaVuSans-4f" x="66.658203"/>
     </g>
    </g>
   </g>
   <g id="patch_4">
    <path d="M 57.6 307.584 
L 57.6 41.472 
" style="fill: none; stroke: #000000; stroke-width: 0.8; stroke-linejoin: miter; stroke-linecap: square"/>
   </g>
   <g id="patch_5">
    <path d="M 414.72 307.584 
L 414.72 41.472 
" style="fill: none; stroke: #000000; stroke-width: 0.8; stroke-linejoin: miter; stroke-linecap: square"/>
   </g>
   <g id="patch_6">
    <path d="M 57.6 307.584 
L 414.72 307.584 
" style="fill: none; stroke: #000000; stroke-width: 0.8; stroke-linejoin: miter; stroke-linecap: square"/>
   </g>
   <g id="patch_7">
    <path d="M 57.6 41.472 
L 414.72 41.472 
" style="fill: none; stroke: #000000; stroke-width: 0.8; stroke-linejoin: miter; stroke-linecap: square"/>
   </g>
  </g>
 </g>
 <defs>
  <clipPath id="p1ca4ac1b11">
   <rect x="57.6" y="41.472" width="357.12" height="266.112"/>
  </clipPath>
 </defs>
</svg>
